<svg height="2062" width="720" xmlns="http://www.w3.org/2000/svg">
<rect height="2062" fill="#555" width="720"></rect>
<text fill="#7f7" font-family="Courier New" font-size="12" xml:space="preserve">
<tspan x="10" y="26"></tspan>
<tspan x="10" y="42">&gt; npmdoc-firebase@0.0.3 test /home/travis/build/npmdoc/node-npmdoc-firebase</tspan>
<tspan x="10" y="58">&gt; (set -e; export PORT=$(utility2 shServerPortRandom); utility2 test test.js)</tspan>
<tspan x="10" y="74"></tspan>
<tspan x="10" y="90"></tspan>
<tspan x="10" y="106">[MODE_BUILD=npmTest] - 2017-04-08T10:03:52Z - npm-testing /home/travis/build/npmdoc/node-npmdoc-\</tspan>
<tspan x="10" y="122">firebase</tspan>
<tspan x="10" y="138"></tspan>
<tspan x="10" y="154"></tspan>
<tspan x="10" y="170">covering $ /home/travis/.nvm/versions/node/v7.8.0/bin/node /home/travis/build/npmdoc/node-npmdoc\</tspan>
<tspan x="10" y="186">-firebase/test.js</tspan>
<tspan x="10" y="202">merging file:///home/travis/build/npmdoc/node-npmdoc-firebase/tmp/build/test-report.json to test\</tspan>
<tspan x="10" y="218">-report</tspan>
<tspan x="10" y="234">&gt; server listening on http-port 65100</tspan>
<tspan x="10" y="250">created apidoc file:///home/travis/build/npmdoc/node-npmdoc-firebase/tmp/build/apidoc.html</tspan>
<tspan x="10" y="266"></tspan>
<tspan x="10" y="282"></tspan>
<tspan x="10" y="298">browserTest - created electron entry-page /home/travis/build/npmdoc/node-npmdoc-firebase/tmp/ele\</tspan>
<tspan x="10" y="314">ctron.15b4d0525540.fb2ff8a5ff04.html</tspan>
<tspan x="10" y="330"></tspan>
<tspan x="10" y="346">Xlib:  extension "RANDR" missing on display ":99.0".</tspan>
<tspan x="10" y="362">merging file:///home/travis/build/npmdoc/node-npmdoc-firebase/tmp/build/test-report.json to test\</tspan>
<tspan x="10" y="378">-report</tspan>
<tspan x="10" y="394">Xlib:  extension "RANDR" missing on display ":99.0".</tspan>
<tspan x="10" y="410">[4983:0408/100355:WARNING:audio_manager.cc(314)] Multiple instances of AudioManager detected</tspan>
<tspan x="10" y="426">[4983:0408/100355:WARNING:audio_manager.cc(275)] Multiple instances of AudioManager detected</tspan>
<tspan x="10" y="442">[5001:0408/100355:ERROR:sandbox_linux.cc(343)] InitializeSandbox() called with multiple threads \</tspan>
<tspan x="10" y="458">in process gpu-process. </tspan>
<tspan x="10" y="474"></tspan>
<tspan x="10" y="490">browserTest - opened url /home/travis/build/npmdoc/node-npmdoc-firebase/tmp/build/apidoc.html</tspan>
<tspan x="10" y="506"></tspan>
<tspan x="10" y="522">[node test-case 1 of 6 passed] - testCase_buildLib_default</tspan>
<tspan x="10" y="538">[node test-case 2 of 6 passed] - testCase_buildReadme_default</tspan>
<tspan x="10" y="554">[node test-case 3 of 6 passed] - testCase_buildTest_default</tspan>
<tspan x="10" y="570"></tspan>
<tspan x="10" y="586">browserTest - created electron entry-page /home/travis/build/npmdoc/node-npmdoc-firebase/tmp/ele\</tspan>
<tspan x="10" y="602">ctron.15b4d052db70.d4a44ce04a954.html</tspan>
<tspan x="10" y="618"></tspan>
<tspan x="10" y="634">(node:4969) DeprecationWarning: node --debug is deprecated. Please use node --inspect instead.</tspan>
<tspan x="10" y="650">Xlib:  extension "RANDR" missing on display ":99.0".</tspan>
<tspan x="10" y="666">&gt; server listening on http-port 62134</tspan>
<tspan x="10" y="682">merging file:///home/travis/build/npmdoc/node-npmdoc-firebase/tmp/build/test-report.json to test\</tspan>
<tspan x="10" y="698">-report</tspan>
<tspan x="10" y="714">Xlib:  extension "RANDR" missing on display ":99.0".</tspan>
<tspan x="10" y="730">[5042:0408/100357:WARNING:audio_manager.cc(314)] Multiple instances of AudioManager detected</tspan>
<tspan x="10" y="746">[5042:0408/100357:WARNING:audio_manager.cc(275)] Multiple instances of AudioManager detected</tspan>
<tspan x="10" y="762">[5074:0408/100357:ERROR:sandbox_linux.cc(343)] InitializeSandbox() called with multiple threads \</tspan>
<tspan x="10" y="778">in process gpu-process. </tspan>
<tspan x="10" y="794">[5042:0408/100357:ERROR:browser_gpu_channel_host_factory.cc(131)] Failed to create channel.</tspan>
<tspan x="10" y="810"></tspan>
<tspan x="10" y="826">browserTest - opened url http://127.0.0.1:65100?modeTest=1</tspan>
<tspan x="10" y="842"></tspan>
<tspan x="10" y="858">[5042:0408/100359:INFO:CONSOLE(248)] "----------|-----------|-----------|-----------|-----------\</tspan>
<tspan x="10" y="874">|</tspan>
<tspan x="10" y="890">File      |   % Stmts |% Branches |   % Funcs |   % Lines |</tspan>
<tspan x="10" y="906">----------|-----------|-----------|-----------|-----------|</tspan>
<tspan x="10" y="922">----------|-----------|-----------|-----------|-----------|</tspan>
<tspan x="10" y="938">All files |       100 |       100 |       100 |       100 |</tspan>
<tspan x="10" y="954">----------|-----------|-----------|-----------|-----------|</tspan>
<tspan x="10" y="970">", source: file:///home/travis/build/npmdoc/node-npmdoc-firebase/tmp/electron.15b4d052db70.d4a44\</tspan>
<tspan x="10" y="986">ce04a954.html (248)</tspan>
<tspan x="10" y="1002">[5042:0408/100359:INFO:CONSOLE(248)] "created coverage file:///tmp/build/coverage.html/index.htm\</tspan>
<tspan x="10" y="1018">l", source: file:///home/travis/build/npmdoc/node-npmdoc-firebase/tmp/electron.15b4d052db70.d4a4\</tspan>
<tspan x="10" y="1034">4ce04a954.html (248)</tspan>
<tspan x="10" y="1050">[node test-case 4 of 6 passed] - testCase_buildApp_default</tspan>
<tspan x="10" y="1066"></tspan>
<tspan x="10" y="1082">browserTest - created screenCapture file:///home/travis/build/npmdoc/node-npmdoc-firebase/tmp/bu\</tspan>
<tspan x="10" y="1098">ild/screenCapture.npmTest.browser.%2Fhome%2Ftravis%2Fbuild%2Fnpmdoc%2Fnode-npmdoc-firebase%2Ftmp\</tspan>
<tspan x="10" y="1114">%2Fbuild%2Fapidoc.html.png</tspan>
<tspan x="10" y="1130"></tspan>
<tspan x="10" y="1146">browserTest - created screenCapture file:///home/travis/build/npmdoc/node-npmdoc-firebase/tmp/bu\</tspan>
<tspan x="10" y="1162">ild/screenCapture.npmTest.browser.%2Fhome%2Ftravis%2Fbuild%2Fnpmdoc%2Fnode-npmdoc-firebase%2Ftmp\</tspan>
<tspan x="10" y="1178">%2Fbuild%2Fapidoc.html.html</tspan>
<tspan x="10" y="1194"></tspan>
<tspan x="10" y="1210">browserTest - exit-code 0 - /home/travis/build/npmdoc/node-npmdoc-firebase/tmp/build/apidoc.html</tspan>
<tspan x="10" y="1226"></tspan>
<tspan x="10" y="1242">[node test-case 5 of 6 passed] - testCase_buildApidoc_default</tspan>
<tspan x="10" y="1258"></tspan>
<tspan x="10" y="1274">browserTest - created screenCapture file:///home/travis/build/npmdoc/node-npmdoc-firebase/tmp/bu\</tspan>
<tspan x="10" y="1290">ild/screenCapture.npmTest.browser.%2F.png</tspan>
<tspan x="10" y="1306"></tspan>
<tspan x="10" y="1322">browserTest - created screenCapture file:///home/travis/build/npmdoc/node-npmdoc-firebase/tmp/bu\</tspan>
<tspan x="10" y="1338">ild/screenCapture.npmTest.browser.%2F.html</tspan>
<tspan x="10" y="1354"></tspan>
<tspan x="10" y="1370">browserTest - exit-code 0 - http://127.0.0.1:65100?modeTest=1</tspan>
<tspan x="10" y="1386"></tspan>
<tspan x="10" y="1402"></tspan>
<tspan x="10" y="1418">browserTest - merged coverage from /home/travis/build/npmdoc/node-npmdoc-firebase/tmp/coverage.n\</tspan>
<tspan x="10" y="1434">pmTest.browser.%2F.json</tspan>
<tspan x="10" y="1450"></tspan>
<tspan x="10" y="1466"></tspan>
<tspan x="10" y="1482">browserTest - merging test-report from /home/travis/build/npmdoc/node-npmdoc-firebase/tmp/test-r\</tspan>
<tspan x="10" y="1498">eport.npmTest.browser.%2F.json</tspan>
<tspan x="10" y="1514"></tspan>
<tspan x="10" y="1530">[node test-case 6 of 6 passed] - testCase_webpage_default</tspan>
<tspan x="10" y="1546">-----------------------------|-----------|-----------|-----------|-----------|</tspan>
<tspan x="10" y="1562">File                         |   % Stmts |% Branches |   % Funcs |   % Lines |</tspan>
<tspan x="10" y="1578">-----------------------------|-----------|-----------|-----------|-----------|</tspan>
<tspan x="10" y="1594">   node-npmdoc-firebase/     |       100 |       100 |       100 |       100 |</tspan>
<tspan x="10" y="1610">      example.js             |       100 |       100 |       100 |       100 |</tspan>
<tspan x="10" y="1626">      lib.npmdoc_firebase.js |       100 |       100 |       100 |       100 |</tspan>
<tspan x="10" y="1642">      test.js                |       100 |       100 |       100 |       100 |</tspan>
<tspan x="10" y="1658">-----------------------------|-----------|-----------|-----------|-----------|</tspan>
<tspan x="10" y="1674">All files                    |       100 |       100 |       100 |       100 |</tspan>
<tspan x="10" y="1690">-----------------------------|-----------|-----------|-----------|-----------|</tspan>
<tspan x="10" y="1706"></tspan>
<tspan x="10" y="1722">created coverage file:///home/travis/build/npmdoc/node-npmdoc-firebase/tmp/build/coverage.html/i\</tspan>
<tspan x="10" y="1738">ndex.html</tspan>
<tspan x="10" y="1754">merging file:///home/travis/build/npmdoc/node-npmdoc-firebase/tmp/build/test-report.json to test\</tspan>
<tspan x="10" y="1770">-report</tspan>
<tspan x="10" y="1786"></tspan>
<tspan x="10" y="1802">-------------------------------------------------------</tspan>
<tspan x="10" y="1818">| test-report - npmTest - node - linux v7.8.0 - 2017-04-08T10:03:52.768Z</tspan>
<tspan x="10" y="1834">|   20040 ms            0 failed        6 passed      |</tspan>
<tspan x="10" y="1850">-------------------------------------------------------</tspan>
<tspan x="10" y="1866">| test-report - npmdoc - node - linux v7.8.0 - 2017-04-08T10:03:30.840Z</tspan>
<tspan x="10" y="1882">|   18088 ms            0 failed        1 passed      |</tspan>
<tspan x="10" y="1898">-------------------------------------------------------</tspan>
<tspan x="10" y="1914"></tspan>
<tspan x="10" y="1930">created test-report file:///home/travis/build/npmdoc/node-npmdoc-firebase/tmp/build/test-report.\</tspan>
<tspan x="10" y="1946">html</tspan>
<tspan x="10" y="1962"></tspan>
<tspan x="10" y="1978"></tspan>
<tspan x="10" y="1994">npmTest - 0 failed tests</tspan>
<tspan x="10" y="2010"></tspan>
<tspan x="10" y="2026"></tspan>
<tspan x="10" y="2042">[MODE_BUILD=npmTest] - 2017-04-08T10:04:14Z - EXIT_CODE - 0</tspan>
</text>
</svg>
